<svg xmlns="http://www.w3.org/2000/svg" xmlns:xlink="http://www.w3.org/1999/xlink" xmlns:inkscape="http://www.inkscape.org/namespaces/inkscape" version="1.1" width="483.8199" height="178.3386" viewBox="0 0 483.8199 178.3386">
<g inkscape:groupmode="layer" inkscape:label="Layer 1">
<path transform="matrix(1,0,0,-1,0,178.3386)" d="M284.2583 30.3463C279.5519 34.7587 275.9485 40.4456 273.4483 47.4072 270.9479 54.3688 269.6978 62.1638 269.6978 70.7922 269.6978 79.0285 270.9726 86.7254 273.5218 93.8832 276.071 101.0407 279.65 107.0218 284.2583 111.8262H316.6149V111.3851C309.6533 105.6002 304.3341 99.3495 300.6573 92.6328 296.9804 85.9164 295.1419 78.8814 295.1419 71.5275 295.1419 63.9777 296.8824 56.9426 300.363 50.4221 303.844 43.9019 309.3103 37.3569 316.762 30.7877V30.3463ZM331.3227 30.3463C327.2046 33.1897 324.2631 37.6512 322.4982 43.7301 320.7334 49.8093 319.8506 56.967 319.8506 65.2034V111.8262H345.295V69.6155C345.295 60.5948 346.447 53.2165 348.7513 47.4806 351.0553 41.7447 354.6587 37.6021 359.5612 35.0527V111.8262H385.0053V30.3463ZM409.4201 30.3463V94.4714H391.771V111.8262H453.5427L448.8364 94.4714H434.1288V30.3463Z" fill="#ffffff"/>
<path transform="matrix(1,0,0,-1,0,178.3386)" d="M282.8911 28.893C280.41 31.2188 278.225 33.872 276.338 36.8507 274.4688 39.801 272.88 43.0965 271.5732 46.7354 270.2798 50.3374 269.3103 54.1468 268.6666 58.1618 268.0209 62.1887 267.6977 66.3993 267.6977 70.7922 267.6977 74.9982 268.0268 79.0889 268.685 83.0625 269.3432 87.0384 270.3285 90.8677 271.6387 94.5473 272.9551 98.244 274.5451 101.649 276.4069 104.7606 278.2749 107.8829 280.4134 110.6997 282.8205 113.2092L284.2583 113.8263H316.6149L318.2329 112.2086 319.8506 113.8263H345.295L347.2951 111.8262V69.6155C347.2951 65.1753 347.5729 61.1768 348.1279 57.621 348.679 54.0901 349.5044 50.957 350.6029 48.2227 351.6673 45.5729 353.0302 43.2927 354.6899 41.3844 355.5629 40.3807 356.5202 39.4798 357.5611 38.6821V111.8262L359.5612 113.8263H385.0053L387.0054 111.8262V30.3463L385.0053 28.3462H331.3227L330.1897 28.7056C327.9223 30.2709 325.9797 32.2801 324.3637 34.7309 322.782 37.1302 321.5214 39.9455 320.584 43.1753 319.665 46.3414 318.9793 49.7554 318.528 53.4158 318.0767 57.0784 317.8505 61.0081 317.8505 65.2034V109.8221C314.4679 107.0082 311.4904 104.0896 308.92 101.0693 306.3552 98.0549 304.1838 94.9246 302.4074 91.6795 300.6473 88.4645 299.3278 85.1771 298.4505 81.8192 297.5786 78.4814 297.142 75.0501 297.142 71.5275 297.142 67.9025 297.5564 64.4145 298.385 61.0654 299.2167 57.7029 300.4625 54.4671 302.1211 51.3598 303.7904 48.2329 305.9521 45.0805 308.6048 41.9046 311.2682 38.7153 314.428 35.5093 318.0824 32.2877L318.7621 30.7877V30.3463L316.762 28.3462H284.2583ZM284.2583 30.3463C279.5519 34.7587 275.9485 40.4456 273.4483 47.4072 270.9479 54.3688 269.6978 62.1638 269.6978 70.7922 269.6978 79.0285 270.9726 86.7254 273.5218 93.8832 276.071 101.0407 279.65 107.0218 284.2583 111.8262H316.6149V111.3851C309.6533 105.6002 304.3341 99.3495 300.6573 92.6328 296.9804 85.9164 295.1419 78.8814 295.1419 71.5275 295.1419 63.9777 296.8824 56.9426 300.363 50.4221 303.844 43.9019 309.3103 37.3569 316.762 30.7877V30.3463ZM331.3227 30.3463C327.2046 33.1897 324.2631 37.6512 322.4982 43.7301 320.7334 49.8093 319.8506 56.967 319.8506 65.2034V111.8262H345.295V69.6155C345.295 60.5948 346.447 53.2165 348.7513 47.4806 351.0553 41.7447 354.6587 37.6021 359.5612 35.0527V111.8262H385.0053V30.3463ZM409.4201 30.3463V94.4714H391.771V111.8262H453.5427L448.8364 94.4714H434.1288V30.3463ZM407.4199 30.3463V92.4712H391.771L389.7709 94.4714V111.8262L391.771 113.8263H453.5427L455.4726 111.3026 450.7662 93.9478 448.8364 92.4712H436.1289V30.3463L434.1288 28.3462H409.4201Z" fill="#7e7d7b" fill-rule="evenodd"/>
<path transform="matrix(1,0,0,-1,0,178.3386)" d="M88.295 130.2174V144.3226L93.9643 149.9919H108.07L113.7393 144.3226V130.2174L108.07 124.5481H93.9643Z" fill="#b8281f"/>
<path transform="matrix(1,0,0,-1,0,178.3386)" d="M195.1302 30.3463V111.8262H248.813L244.1066 94.4714H219.6921V79.9109H241.7533L237.047 62.5558H219.6921V47.9954H249.1072L244.4009 30.3463Z" fill="#7e7d7b"/>
<path transform="matrix(1,0,0,-1,0,178.3386)" d="M88.295 30.3463V111.8262H113.7393V30.3463Z" fill="#7e7d7b"/>
<path transform="matrix(1,0,0,-1,0,178.3386)" d="M159.6849 30.3463V72.4099C159.6849 82.2149 158.5329 89.8384 156.2287 95.2804 153.9244 100.722 150.2722 104.3745 145.2716 106.2374V30.3463H119.8273V111.8262H173.6572C181.3051 106.7278 185.129 95.0596 185.129 76.8223V30.3463Z" fill="#7e7d7b"/>
<path transform="matrix(1,0,0,-1,0,178.3386)" d="M28.3462 30.3463V111.8262H53.4963V48.7307H80.7052L75.9988 30.3463Z" fill="#7e7d7b"/>
</g>
</svg>
